<svg xmlns="http://www.w3.org/2000/svg" width="480" height="270" viewBox="0 0 480 270"><rect width="100%" height="100%" fill="#1a1a1a"/><path fill="#ffffff" d="M112.24 122.2h4.26v26.03h-2.48q-.58 0-.96-.19-.39-.19-.75-.64l-13.59-17.35q.11 1.19.11 2.2v15.98h-4.27V122.2h2.54q.31 0 .53.03.23.03.4.11t.33.23.36.41l13.64 17.42q-.05-.63-.09-1.24-.03-.61-.03-1.14zm17.53 7.27q2.05 0 3.73.67 1.69.67 2.88 1.89 1.2 1.22 1.85 2.99.65 1.76.65 3.94 0 2.2-.65 3.96t-1.85 3.01q-1.19 1.24-2.88 1.9-1.68.67-3.73.67-2.07 0-3.76-.67-1.69-.66-2.89-1.9-1.2-1.25-1.86-3.01-.65-1.76-.65-3.96 0-2.18.65-3.94.66-1.77 1.86-2.99t2.89-1.89 3.76-.67m0 15.61q2.3 0 3.41-1.55t1.11-4.53q0-2.99-1.11-4.56-1.11-1.56-3.41-1.56-2.34 0-3.47 1.57-1.12 1.58-1.12 4.55t1.12 4.52q1.13 1.56 3.47 1.56m34.4-15.32h3.51l-7.33 18.47h-4.03l-7.33-18.47h3.68q.5 0 .83.24.34.23.44.59l3.57 9.86q.29.87.5 1.7.22.82.38 1.65.18-.83.4-1.65.21-.83.52-1.7l3.63-9.86q.13-.36.45-.59.33-.24.78-.24m6.01 0h4.46v18.47h-4.46zm5.08-5.38q0 .58-.24 1.08-.23.5-.62.88t-.91.6q-.52.23-1.11.23-.58 0-1.09-.23-.52-.22-.89-.6-.38-.38-.61-.88-.22-.5-.22-1.08 0-.59.22-1.12.23-.52.61-.9.37-.37.89-.6.51-.22 1.09-.22.59 0 1.11.22.52.23.91.6.39.38.62.9.24.53.24 1.12m15.51 18.38v-8.28q-.75-.92-1.65-1.3-.89-.38-1.91-.38-1.01 0-1.82.38t-1.39 1.14q-.57.77-.88 1.95-.3 1.18-.3 2.78 0 1.62.26 2.74.26 1.13.74 1.84.49.71 1.19 1.03.7.31 1.57.31 1.38 0 2.36-.57.97-.58 1.83-1.64m0-21.28h4.45v26.75h-2.72q-.88 0-1.12-.81l-.37-1.78q-1.12 1.28-2.57 2.07t-3.37.79q-1.52 0-2.78-.63t-2.17-1.83q-.9-1.19-1.4-2.96-.49-1.76-.49-4.03 0-2.05.55-3.82.56-1.76 1.61-3.06 1.04-1.29 2.5-2.02t3.27-.73q1.55 0 2.65.49 1.1.48 1.96 1.31zm12.35 15.39h8.39q0-.86-.25-1.63-.24-.76-.72-1.34-.49-.57-1.24-.91-.74-.33-1.73-.33-1.93 0-3.04 1.1-1.1 1.1-1.41 3.11m11.34 2.68h-11.43q.11 1.43.5 2.46.4 1.04 1.05 1.71.65.68 1.54 1.01t1.97.33 1.86-.25 1.37-.56q.58-.3 1.02-.56.45-.25.86-.25.56 0 .83.42l1.28 1.62q-.74.86-1.66 1.44-.92.59-1.92.94t-2.03.5q-1.04.14-2.01.14-1.92 0-3.58-.64t-2.88-1.89-1.93-3.1q-.7-1.84-.7-4.27 0-1.89.61-3.56.62-1.66 1.76-2.89 1.14-1.24 2.79-1.96t3.72-.72q1.74 0 3.22.56 1.47.56 2.54 1.63 1.06 1.07 1.66 2.63t.6 3.55q0 1.01-.21 1.36-.22.35-.83.35m12.55-10.08q2.05 0 3.73.67t2.88 1.89 1.85 2.99q.64 1.76.64 3.94 0 2.2-.64 3.96-.65 1.76-1.85 3.01-1.2 1.24-2.88 1.9-1.68.67-3.73.67-2.07 0-3.77-.67-1.69-.66-2.89-1.9-1.19-1.25-1.85-3.01t-.66-3.96q0-2.18.66-3.94.66-1.77 1.85-2.99 1.2-1.22 2.89-1.89 1.7-.67 3.77-.67m0 15.61q2.3 0 3.41-1.55 1.1-1.55 1.1-4.53 0-2.99-1.1-4.56-1.11-1.56-3.41-1.56-2.34 0-3.47 1.57-1.12 1.58-1.12 4.55t1.12 4.52q1.13 1.56 3.47 1.56m31.01-1.62v-3.11q-1.93.09-3.24.33t-2.11.62q-.79.38-1.13.88-.34.51-.34 1.1 0 1.17.69 1.67.69.51 1.81.51 1.37 0 2.37-.5 1-.49 1.95-1.5m-9.4-9.7-.79-1.42q3.19-2.92 7.67-2.92 1.62 0 2.9.53t2.16 1.48q.88.94 1.34 2.26.46 1.31.46 2.88v11.66h-2.02q-.63 0-.97-.19t-.54-.76l-.4-1.34q-.7.63-1.36 1.11-.67.48-1.39.8-.72.33-1.54.5t-1.81.17q-1.17 0-2.16-.32-.99-.31-1.71-.94t-1.11-1.57q-.4-.93-.4-2.18 0-.7.23-1.39.24-.69.77-1.32t1.38-1.19q.84-.56 2.07-.97 1.24-.42 2.88-.68 1.63-.26 3.74-.31v-1.08q0-1.86-.79-2.75t-2.29-.89q-1.08 0-1.79.25t-1.25.57q-.54.31-.98.57-.44.25-.98.25-.47 0-.79-.25-.33-.24-.53-.56m31.05-4h3.51l-7.32 18.47h-4.03l-7.33-18.47h3.67q.51 0 .84.24.33.23.44.59l3.56 9.86q.29.87.51 1.7.21.82.38 1.65.18-.83.39-1.65.22-.83.52-1.7l3.64-9.86q.13-.36.45-.59.32-.24.77-.24m15.63 13.7v-3.11q-1.93.09-3.24.33-1.32.24-2.11.62t-1.13.88q-.34.51-.34 1.1 0 1.17.69 1.67.69.51 1.81.51 1.37 0 2.37-.5.99-.49 1.95-1.5m-9.4-9.7-.79-1.42q3.19-2.92 7.67-2.92 1.62 0 2.9.53 1.27.53 2.16 1.48.88.94 1.34 2.26.46 1.31.46 2.88v11.66h-2.02q-.63 0-.97-.19t-.54-.76l-.4-1.34q-.7.63-1.37 1.11-.66.48-1.38.8-.72.33-1.54.5t-1.81.17q-1.17 0-2.16-.32-.99-.31-1.71-.94t-1.12-1.57q-.39-.93-.39-2.18 0-.7.23-1.39.24-.69.77-1.32t1.37-1.19q.85-.56 2.08-.97 1.24-.42 2.87-.68 1.64-.26 3.75-.31v-1.08q0-1.86-.79-2.75-.8-.89-2.29-.89-1.08 0-1.79.25t-1.25.57q-.54.31-.98.57-.44.25-.98.25-.47 0-.8-.25-.32-.24-.52-.56m18.06-4h4.46v18.47h-4.46zm5.07-5.38q0 .58-.23 1.08-.24.5-.62.88-.39.38-.91.6-.52.23-1.12.23-.57 0-1.09-.23-.51-.22-.89-.6t-.6-.88q-.23-.5-.23-1.08 0-.59.23-1.12.22-.52.6-.9.38-.37.89-.6.52-.22 1.09-.22.6 0 1.12.22.52.23.91.6.38.38.62.9.23.53.23 1.12m3.98-2.9h4.45v26.75h-4.45zm18.65 21.98v-3.11q-1.93.09-3.24.33-1.32.24-2.11.62t-1.13.88q-.34.51-.34 1.1 0 1.17.69 1.67.69.51 1.81.51 1.37 0 2.36-.5 1-.49 1.96-1.5m-9.4-9.7-.79-1.42q3.19-2.92 7.67-2.92 1.62 0 2.9.53 1.27.53 2.16 1.48.88.94 1.34 2.26.46 1.31.46 2.88v11.66h-2.02q-.63 0-.97-.19t-.54-.76l-.4-1.34q-.7.63-1.37 1.11-.66.48-1.38.8-.72.33-1.54.5t-1.81.17q-1.17 0-2.16-.32-.99-.31-1.71-.94t-1.12-1.57q-.39-.93-.39-2.18 0-.7.23-1.39.24-.69.77-1.32t1.37-1.19q.85-.56 2.08-.97 1.24-.42 2.87-.68 1.64-.26 3.75-.31v-1.08q0-1.86-.79-2.75-.8-.89-2.29-.89-1.08 0-1.79.25t-1.25.57q-.54.31-.98.57-.44.25-.98.25-.47 0-.8-.25-.32-.24-.52-.56m22.36 1.4v8.28q.75.92 1.64 1.3.9.38 1.89.38 1.02 0 1.84-.37t1.4-1.16q.57-.78.88-1.99.3-1.22.3-2.91 0-3.04-1-4.4-1.01-1.36-2.9-1.36-1.28 0-2.23.58-.96.59-1.82 1.65m0-13.68v10.55q1.11-1.17 2.47-1.86 1.36-.7 3.11-.7 1.6 0 2.89.63 1.28.63 2.19 1.81t1.4 2.86q.48 1.67.48 3.76 0 2.25-.55 4.08-.56 1.84-1.6 3.14-1.03 1.31-2.49 2.03t-3.24.72q-.86 0-1.57-.17-.7-.17-1.29-.48-.6-.3-1.09-.75-.5-.44-.95-.98l-.19 1.25q-.11.46-.37.66t-.71.2h-2.94v-26.75zm16.04 0h4.44v26.75h-4.44zm12.4 15.39h8.39q0-.86-.25-1.63-.24-.76-.73-1.34-.48-.57-1.23-.91-.75-.33-1.74-.33-1.92 0-3.03 1.1t-1.41 3.11m11.34 2.68h-11.43q.11 1.43.5 2.46.4 1.04 1.05 1.71.64.68 1.54 1.01.89.33 1.97.33t1.86-.25 1.37-.56q.58-.3 1.02-.56.44-.25.86-.25.56 0 .83.42l1.27 1.62q-.73.86-1.65 1.44-.92.59-1.92.94t-2.03.5q-1.04.14-2.01.14-1.93 0-3.58-.64-1.66-.64-2.88-1.89-1.23-1.25-1.93-3.1-.7-1.84-.7-4.27 0-1.89.61-3.56.61-1.66 1.76-2.89 1.14-1.24 2.79-1.96 1.64-.72 3.71-.72 1.75 0 3.23.56 1.47.56 2.53 1.63 1.07 1.07 1.67 2.63t.6 3.55q0 1.01-.21 1.36-.22.35-.83.35"/></svg>